<?xml version="1.0"?>
<svg xmlns="http://www.w3.org/2000/svg" id="Layer_1" data-name="Layer 1" viewBox="0 0 64 64"><title>Icons8 RSL Colored Part 8</title><path d="M19,43.37l-6.78,2.21a4.32,4.32,0,0,1-4-.73h0A4.32,4.32,0,0,1,7.35,39l6.89-9.76A10,10,0,0,1,21.79,25l13.09-.81L48.26,33,46.63,43s-17.87,2.57-18.5,2.78S19,43.37,19,43.37Z" style="fill:#faefde;"/><path d="M9.26,55.63,2,58.35l2.72-7.26A20,20,0,0,1,9.31,44L41.6,11.68a2,2,0,0,1,2.83,0l4.24,4.24a2,2,0,0,1,0,2.83L16.38,51A20,20,0,0,1,9.26,55.63Z" style="fill:#72caaf;"/><path d="M42.8,24.62,16.38,51l-4.47-4.65.4-.42L38.23,20Z" style="fill:#f9e3ae;"/><path d="M43,38.7l-2.3,1.2A10,10,0,0,1,35.08,41L24.64,40a5,5,0,0,0-4.33,1.78h0a4,4,0,0,0,1.36,6.18L31,52.32a20,20,0,0,0,10.55,1.83l19.68-2a2,2,0,0,0,1.8-2V36.47a2,2,0,0,0-2.17-2l-2.72.23a20,20,0,0,1-13-3.46L39.82,27.6" style="fill:#faefde;"/><path d="M41.69,43.9A10,10,0,0,1,36.08,45L25.64,44a5,5,0,0,0-4.33,1.78h0l-.93,1.2a4.46,4.46,0,0,1,0-5.64c2.3-3,10.46-.73,10.46-.73s5.44,1.87,10.35-.93l2.67-1.44h0a3.84,3.84,0,0,1-1.47,5.31Z" style="fill:#fff7f0;"/><path d="M40.31,33.91l-5.5,5.57a3.69,3.69,0,0,1-3.18,1.06l-4.12-.63L39.38,28h0A3.69,3.69,0,0,1,40.31,33.91Z" style="fill:#efd8be;"/><path d="M9.45,43.83l2.46,2.56a20,20,0,0,0-4.19,6.7L6.37,56.71,2,58.35l2.72-7.26A20.14,20.14,0,0,1,9.31,44Z" style="fill:#97e0bb;"/><path d="M45.86,13.11a2,2,0,0,0-1.26.57L38.23,20l-2.5-2.5,5.87-5.87a2,2,0,0,1,2.83,0Z" style="fill:#97e0bb;"/><path d="M49.38,7h0a3,3,0,0,1,3,3v5a0,0,0,0,1,0,0h-6a0,0,0,0,1,0,0V10a3,3,0,0,1,3-3Z" transform="translate(22.22 -31.7) rotate(45)" style="fill:#f9e3ae;"/><path d="M38.23,20,12.31,46l-.4.42L9.45,43.83,35.73,17.55Z" style="fill:#ffeb9b;"/><polygon points="35.73 17.55 9.45 43.83 9.21 43.57 35.73 17.55" style="fill:#f9dd8f;"/><path d="M63,34.26a3,3,0,0,0-2.28-.78L58,33.7a19,19,0,0,1-12.36-3.29l-4.29-3,8-8A3,3,0,0,0,50,16l3-3a4,4,0,0,0-5.66-5.66l-3,3a3,3,0,0,0-3.41.58l-.46.46A6.94,6.94,0,0,0,33.08,13l-8.14,8.14a1,1,0,1,0,1.36,1.36l8.14-8.14A5,5,0,0,1,38.87,13L28.27,23.6l-6.55.4a11,11,0,0,0-8.3,4.63L6.53,38.39A5.31,5.31,0,0,0,7,45.08a20.53,20.53,0,0,0-3.2,5.66L1.14,57.8-.12,59.05A1,1,0,1,0,1.3,60.47l1.26-1.26,7.05-2.65a20.94,20.94,0,0,0,7.48-4.81l3.39-3.39a5.24,5.24,0,0,0,.76.45l9.3,4.41a21.17,21.17,0,0,0,11.08,1.92l19.68-2a3,3,0,0,0,2.7-3V36.47A3,3,0,0,0,63,34.26ZM48.67,8.85a2,2,0,1,1,2.83,2.83L48.67,14.5l-2.83-2.83ZM43,12.09a1,1,0,0,1,.7.3l3,2.95,1.3,1.3A1,1,0,0,1,48,18l-5,5-5.65-5.65,5-5A1,1,0,0,1,43,12.09ZM8.16,39.55,15,29.79a9,9,0,0,1,6.8-3.8l4.29-.27L8.6,43.26c-.1.1-.2.2-.29.31A3.32,3.32,0,0,1,8.16,39.55Zm.75,15.14-5.2,2,1.95-5.2A18.62,18.62,0,0,1,8.6,46.27c.17-.22.35-.43.54-.64l5.57,5.57A18.72,18.72,0,0,1,8.91,54.69Zm7.21-4.81-5.65-5.65L29.16,25.54l2.13-2.13L36,18.73l5.65,5.65-2.44,2.44-.06.07L26.84,39.17,24.73,39a6,6,0,0,0-5.19,2.13,5,5,0,0,0-1,4.28,4.73,4.73,0,0,0,.62,1.52ZM62,50.19a1,1,0,0,1-.9,1l-1.1.11a1,1,0,0,0-1-1H57a1,1,0,0,0-.92,1.39L41.42,53.15a19.06,19.06,0,0,1-10-1.74L22.09,47a.83.83,0,0,1-.16-.09,2.91,2.91,0,0,1-1.33-1.5,2.57,2.57,0,0,1-.15-.47,3,3,0,0,1,.62-2.57A4,4,0,0,1,24.54,41L25,41l2.58.25L35,42a11,11,0,0,0,6.17-1.2l2.3-1.2a1,1,0,1,0-.92-1.77L40.23,39a9,9,0,0,1-5,1l-5.76-.57L39.94,28.9l4.6,3.16a21,21,0,0,0,11.63,3.7,1,1,0,0,0-.17.53,1,1,0,0,0,1,1h2a1,1,0,0,0,.69-1.72l1.23-.1a1,1,0,0,1,.76.26,1,1,0,0,1,.32.74Z" style="fill:#8d6c9f;"/><path d="M59,45.29H57a1,1,0,0,0,0,2h2a1,1,0,0,0,0-2Z" style="fill:#8d6c9f;"/><path d="M59,40.29H57a1,1,0,0,0,0,2h2a1,1,0,0,0,0-2Z" style="fill:#8d6c9f;"/></svg>
